<svg width="67" height="71" viewBox="0 0 67 71" fill="none" xmlns="http://www.w3.org/2000/svg">
<rect width="67" height="71" rx="10" fill="#E7ECF7"/>
<g clip-path="url(#clip0_2507_5988)">
<path d="M38 30.6667H38.0133" stroke="white" stroke-width="2" stroke-linecap="round" stroke-linejoin="round"/>
<path d="M22 28C22 26.9391 22.4214 25.9217 23.1716 25.1716C23.9217 24.4214 24.9391 24 26 24H42C43.0609 24 44.0783 24.4214 44.8284 25.1716C45.5786 25.9217 46 26.9391 46 28V44C46 45.0609 45.5786 46.0783 44.8284 46.8284C44.0783 47.5786 43.0609 48 42 48H26C24.9391 48 23.9217 47.5786 23.1716 46.8284C22.4214 46.0783 22 45.0609 22 44V28Z" stroke="white" stroke-width="2" stroke-linecap="round" stroke-linejoin="round"/>
<path d="M22 41.3333L28.6667 34.6667C29.904 33.476 31.4293 33.476 32.6667 34.6667L39.3333 41.3333" stroke="white" stroke-width="2" stroke-linecap="round" stroke-linejoin="round"/>
<path d="M36.6667 38.6668L38 37.3334C39.2373 36.1428 40.7627 36.1428 42 37.3334L46 41.3334" stroke="white" stroke-width="2" stroke-linecap="round" stroke-linejoin="round"/>
</g>
<defs>
<clipPath id="clip0_2507_5988">
<rect width="32" height="32" fill="white" transform="translate(18 20)"/>
</clipPath>
</defs>
</svg>
