<svg xmlns="http://www.w3.org/2000/svg" width="51" height="51" viewBox="0 0 61 60" fill="none">
  <g clip-path="url(#clip0_214_2776)">
    <path d="M17.9999 45C14.8806 45 11.889 43.8147 9.68335 41.705C7.47767 39.5952 6.23853 36.7337 6.23853 33.75C6.23853 30.7663 7.47767 27.9048 9.68335 25.7951C11.889 23.6853 14.8806 22.5 17.9999 22.5C18.7366 19.2179 20.8918 16.3337 23.9914 14.4818C25.5261 13.5648 27.2465 12.9289 29.0543 12.6103C30.8622 12.2917 32.722 12.2967 34.5277 12.625C36.3333 12.9533 38.0495 13.5985 39.5781 14.5237C41.1068 15.4489 42.4179 16.636 43.4368 18.0173C44.4557 19.3986 45.1623 20.947 45.5162 22.574C45.8702 24.201 45.8647 25.8749 45.4999 27.5H47.9999C50.3205 27.5 52.5461 28.4219 54.1871 30.0628C55.828 31.7038 56.7499 33.9294 56.7499 36.25C56.7499 38.5706 55.828 40.7962 54.1871 42.4372C52.5461 44.0781 50.3205 45 47.9999 45H45.4999" stroke="#2C3E50" stroke-width="2" stroke-linecap="round" stroke-linejoin="round"/>
    <path d="M23 37.5L30.5 30L38 37.5" stroke="#2C3E50" stroke-width="2" stroke-linecap="round" stroke-linejoin="round"/>
    <path d="M30.5 30V52.5" stroke="#2C3E50" stroke-width="2" stroke-linecap="round" stroke-linejoin="round"/>
  </g>
  <defs>
    <clipPath id="clip0_214_2776">
      <rect width="60" height="60" fill="white" transform="translate(0.5)"/>
    </clipPath>
  </defs>
</svg>
